<!-- Generated by IcoMoon.io -->
<svg version="1.1" xmlns="http://www.w3.org/2000/svg" width="37" height="32" viewBox="0 0 37 32">
<path fill="#fd6a00" d="M6.937 29.405c-0.249-0.137-0.552-0.487-0.673-0.779l-0.22-0.531 0.117-1.036c0.412-3.643 3.384-6.994 6.699-7.554l0.716-0.121 0.293 0.266c0.161 0.146 0.799 1.287 1.416 2.535 1.336 2.7 1.257 2.668 1.744 0.699l0.388-1.57-0.542-0.872c-0.298-0.48-0.542-1.060-0.542-1.289v-0.416l0.336-0.18c0.185-0.099 0.888-0.18 1.563-0.18h1.227l0.347 0.347c0.442 0.442 0.445 0.419-0.244 1.621l-0.581 1.013 0.341 1.33c0.187 0.731 0.404 1.443 0.482 1.582l0.141 0.252 2.476-4.943 0.282-0.108c0.376-0.144 1.655 0.202 2.834 0.767l0.955 0.458 2.459 2.458 0.457 0.974c0.582 1.24 0.808 2.226 0.813 3.553l0.004 1.055-0.896 0.842-21.939 0.077zM14.673 26.668c-0.067-0.215-0.582-1.313-1.146-2.439l-1.024-2.048-0.702 0.395c-1.347 0.757-2.714 2.536-3.013 3.919l-0.122 0.564h6.129zM27.588 26.408c-0.477-1.738-2.456-4.037-3.474-4.037h-0.232l-2.337 4.688h6.222zM16.594 16.41c-5.213-1.331-7.142-8.155-3.462-12.248l0.749-0.833 2.022-1.078 2.277-0.42 1.111 0.196c2.283 0.402 4.17 1.797 5.14 3.8l0.485 1.001 0.133 4.168-0.352 1.002c-0.928 2.64-3.198 4.343-6.061 4.548l-1.174 0.084zM19.98 13.674c0.972-0.44 1.663-1.084 2.123-1.978l0.354-0.689 0.086-1.073c0.103-1.285-0.078-2.665-0.361-2.759-0.113-0.037-0.533-0.152-0.935-0.255s-0.97-0.389-1.264-0.636l-0.534-0.449-1.684 1.575-0.921 0.274c-0.507 0.15-1.37 0.274-1.918 0.274h-0.997l-0.116 0.528c-0.176 0.799 0.064 2.232 0.539 3.232l0.426 0.894 0.604 0.461c0.838 0.639 1.739 0.937 2.86 0.947l0.955 0.008z"></path>
</svg>
