<!-- Generated by IcoMoon.io -->
<svg version="1.1" xmlns="http://www.w3.org/2000/svg" width="37" height="32" viewBox="0 0 37 32">
<path fill="#fd6a00" d="M17.725 26.904c-0.613-0.137-1.596-0.506-2.186-0.82l-1.072-0.571-0.818-0.874c-0.45-0.481-1.061-1.394-1.359-2.030l-0.541-1.156-0.384-2.482 0.226-1.266c0.124-0.696 0.463-1.74 0.753-2.319l0.527-1.054 1.056-0.977c2.184-2.022 4.967-2.773 5.897-1.592l0.354 0.451v1.333l-0.718 0.913-0.789 0.168c-0.434 0.093-1.163 0.387-1.619 0.655l-0.83 0.486-0.511 0.806c-0.281 0.443-0.59 1.18-0.687 1.637l-0.177 0.831 0.164 0.87c0.292 1.546 1.379 2.832 2.879 3.405l0.784 0.3 11.061-0.109 0.82-0.482c1.872-1.1 2.716-3.281 2.086-5.391l-0.219-0.735-1.794-1.841-0.804-0.212c-0.442-0.117-1.061-0.322-1.375-0.456l-0.571-0.244-0.411-1.371 0.536-1.283 1.296-0.428 2.458 0.747 2.258 1.517 0.674 0.893c0.371 0.491 0.853 1.335 1.072 1.875l0.397 0.982 0.006 4.108-0.57 1.203c-1.035 2.185-2.416 3.466-4.61 4.276l-1.072 0.395-11.074 0.095zM6.908 21.62c-1.237-0.303-2.627-1.082-3.697-2.072l-1.056-0.977-0.527-1.054c-0.29-0.58-0.628-1.623-0.753-2.319l-0.226-1.266 0.384-2.482 1.082-2.312 1.679-1.795 2.427-1.214 2.503-0.422 10.471 0.14 1.072 0.395c2.186 0.805 3.585 2.099 4.588 4.244l0.548 1.172 0.182 3.198-0.628 2.322-0.669 1.034c-1.079 1.669-2.681 2.788-4.771 3.333l-1.028 0.268-1.176-0.388-0.265-0.512c-0.334-0.645-0.335-1.126-0.005-1.764l0.259-0.502 0.5-0.184c0.275-0.101 0.846-0.278 1.27-0.393l0.77-0.209 0.716-0.647c0.908-0.82 1.409-1.8 1.532-2.998l0.097-0.941-0.279-0.818c-0.38-1.114-1.092-2-2.073-2.577l-0.82-0.482-11.061-0.109-0.784 0.3c-1.5 0.573-2.587 1.859-2.879 3.405l-0.164 0.87 0.177 0.831c0.097 0.457 0.406 1.193 0.687 1.637l0.511 0.806 0.83 0.486c0.457 0.268 1.185 0.562 1.619 0.655l0.789 0.168 0.718 0.913v1.361l-0.804 0.913-0.536 0.078c-0.295 0.043-0.841 0.003-1.215-0.089z"></path>
</svg>
