<!-- Generated by IcoMoon.io -->
<svg version="1.1" xmlns="http://www.w3.org/2000/svg" width="37" height="32" viewBox="0 0 37 32">
<path fill="#fd6a00" d="M21.042 28.559l-0.38-0.308 0.284-1.155c0.156-0.635 0.401-1.569 0.543-2.075l0.259-0.919 3.366-3.385c3.962-3.985 3.312-3.792 5.467-1.629l1.751 1.757-7.039 7.039-1.912 0.488c-1.051 0.268-1.922 0.489-1.935 0.491s-0.194-0.135-0.403-0.304zM4.775 25.352c-0.262-0.079-0.734-0.317-1.048-0.529l-0.571-0.386-0.83-1.654v-14.58l0.825-1.656 0.697-0.452c1.012-0.656 0.97-0.654 14.136-0.599l12.064 0.050 0.723 0.508c0.398 0.28 0.892 0.806 1.098 1.17l0.375 0.662 0.005 4.237-0.599 0.198c-0.33 0.109-0.856 0.423-1.17 0.699l-0.571 0.501v-4.905l-0.346-0.647h-24.377l-0.52 0.743v13.56l0.52 0.743h15.189l-0.244 0.543c-0.134 0.299-0.324 0.863-0.422 1.254l-0.178 0.71-7.14-0.014c-3.927-0.008-7.355-0.079-7.617-0.157zM31.694 17.694l-1.805-1.811 2.015-1.866 1.015-0.223 1.14 0.376 1.536 1.642v1.711l-0.945 0.991c-1.164 1.221-0.828 1.314-2.956-0.82zM8.013 18.622c-0.228-0.116-0.486-0.412-0.573-0.66l-0.158-0.449 0.195-0.428c0.107-0.235 0.389-0.502 0.626-0.592l0.431-0.164h11.034l0.365 0.192c0.878 0.462 0.878 1.661 0 2.123l-0.365 0.192-11.139-0.005zM8.013 13.606c-0.228-0.116-0.486-0.412-0.573-0.659l-0.158-0.449 0.195-0.428c0.107-0.235 0.389-0.502 0.626-0.592l0.431-0.164h16.049l0.365 0.192c0.49 0.258 0.611 0.467 0.611 1.062s-0.12 0.803-0.611 1.062l-0.365 0.192-16.154-0.005z"></path>
</svg>
